<?xml version="1.0" standalone="no"?>
<!DOCTYPE svg PUBLIC "-//W3C//DTD SVG 20010904//EN"
 "http://www.w3.org/TR/2001/REC-SVG-20010904/DTD/svg10.dtd">
<svg version="1.0" xmlns="http://www.w3.org/2000/svg"
 width="1024.000000pt" height="1024.000000pt" viewBox="0 0 1024.000000 1024.000000"
 preserveAspectRatio="xMidYMid meet">

<g transform="translate(0.000000,1024.000000) scale(0.100000,-0.100000)"
fill="#FFFFFF" stroke="none">
<path d="M4855 7954 c-218 -14 -517 -63 -751 -124 -420 -109 -777 -262 -1248
-537 l-108 -64 -202 -14 c-242 -17 -319 -28 -456 -67 -479 -134 -843 -535
-950 -1046 -27 -127 -37 -373 -21 -477 46 -281 201 -504 431 -620 63 -32 200
-78 208 -70 2 2 -1 12 -6 22 -27 49 -53 241 -54 383 0 285 68 552 203 794 155
276 318 435 574 561 246 122 447 164 826 172 372 8 652 -16 974 -84 l170 -36
360 -4 c198 -3 384 -3 414 -1 l54 3 -69 46 c-295 195 -582 300 -1055 385 -145
26 -266 48 -267 50 -2 1 4 14 15 29 21 30 225 133 377 190 200 74 492 138 773
169 238 27 661 17 893 -20 479 -76 935 -211 1339 -396 35 -16 65 -27 67 -25 6
5 -350 238 -460 302 -435 249 -853 395 -1322 461 -115 16 -558 27 -709 18z"/>
<path d="M5611 7073 c-10 -38 -267 -1071 -506 -2040 -69 -276 -140 -542 -159
-590 -18 -48 -37 -103 -41 -120 -6 -30 -4 -33 16 -33 12 0 31 7 41 17 17 15
18 15 18 0 0 -16 100 -17 1340 -17 737 0 1340 3 1340 6 0 3 43 165 95 359 52
195 95 357 95 360 0 5 -1506 -1 -1732 -8 -79 -2 -89 0 -112 22 -16 15 -26 35
-26 53 0 15 92 400 205 855 245 990 238 961 302 1156 5 16 -20 17 -430 17
l-436 0 -10 -37z"/>
<path d="M4195 6563 c-111 -23 -151 -25 -520 -33 -425 -8 -497 -15 -675 -67
-273 -79 -526 -256 -711 -498 -177 -232 -259 -507 -246 -828 6 -151 28 -252
81 -364 118 -249 302 -388 602 -454 92 -20 132 -22 574 -26 l476 -5 75 266 75
266 -381 0 c-295 0 -395 4 -449 15 -324 69 -456 346 -325 685 37 97 89 175
171 258 75 75 147 122 246 161 l67 26 489 5 489 5 67 303 c37 166 64 304 62
307 -9 8 -43 4 -167 -22z"/>
<path d="M1640 3868 c0 -2 0 -347 0 -768 l0 -765 580 -3 580 -2 0 190 0 190
-380 0 -380 0 0 578 1 577 -201 3 c-110 1 -200 1 -200 0z"/>
<path d="M5272 3859 c-131 -19 -266 -89 -342 -178 -123 -141 -184 -410 -159
-697 26 -305 127 -488 321 -583 122 -61 200 -73 468 -73 241 -1 326 7 543 49
l137 27 0 423 0 423 -332 0 -333 0 0 -170 0 -170 143 0 142 0 0 -114 0 -115
-47 -8 c-27 -4 -127 -8 -223 -8 l-175 0 -67 32 c-55 26 -73 41 -102 85 -49 75
-69 159 -69 303 -1 184 33 289 115 359 74 64 94 66 540 66 l398 0 0 180 0 180
-447 -1 c-247 -1 -476 -6 -511 -10z"/>
<path d="M6580 3100 l0 -770 208 2 207 3 -1 308 -1 307 324 0 323 0 0 -310 0
-310 205 2 205 3 0 765 0 765 -205 3 -205 2 0 -285 0 -285 -322 2 -322 3 0
280 -1 280 -207 3 -208 2 0 -770z"/>
<path d="M8400 3100 l0 -770 208 2 207 3 0 765 0 765 -207 3 -208 2 0 -770z"/>
<path d="M3350 3418 c-249 -680 -379 -1031 -390 -1055 -5 -12 -6 -24 -2 -25 4
-2 106 -1 226 2 l219 5 46 128 45 127 324 -2 324 -3 47 -127 46 -128 223 -2
c194 -3 222 -1 219 12 -5 17 -543 1454 -557 1488 l-10 22 -298 0 -299 0 -163
-442z m568 -194 c57 -152 101 -278 99 -280 -2 -3 -96 -3 -209 -2 l-204 3 100
278 c55 152 103 277 106 277 3 0 51 -125 108 -276z"/>
</g>
</svg>
